<svg width="85" height="32" viewBox="0 0 85 32" fill="none" xmlns="http://www.w3.org/2000/svg">
<path d="M9.87514 0.796C10.8371 0.796 11.6778 0.991 12.3971 1.381C13.1251 1.771 13.6841 2.31267 14.0741 3.006C14.4641 3.69933 14.6591 4.488 14.6591 5.372C14.6591 6.24733 14.4641 7.036 14.0741 7.738C13.6841 8.44 13.1251 8.99467 12.3971 9.402C11.6778 9.80067 10.8371 10 9.87514 10H6.04014V0.796H9.87514ZM9.61514 7.426C10.2651 7.426 10.7808 7.24833 11.1621 6.893C11.5435 6.53767 11.7341 6.03067 11.7341 5.372C11.7341 4.71333 11.5435 4.20633 11.1621 3.851C10.7808 3.49567 10.2651 3.318 9.61514 3.318H8.92614V7.426H9.61514ZM18.5873 3.097V4.228H21.4473V6.399H18.5873V7.699H21.8373V10H15.7013V0.796H21.8373V3.097H18.5873ZM32.1939 0.796L29.0999 10H25.3689L22.2749 0.796H25.3429L27.2409 7.127L29.1259 0.796H32.1939ZM35.7259 3.097V4.228H38.5859V6.399H35.7259V7.699H38.9759V10H32.8399V0.796H38.9759V3.097H35.7259ZM42.9496 7.816H45.7316V10H40.0636V0.796H42.9496V7.816ZM51.1247 10.091C50.2581 10.091 49.4607 9.88733 48.7327 9.48C48.0134 9.07267 47.4414 8.50933 47.0167 7.79C46.5921 7.07067 46.3797 6.26033 46.3797 5.359C46.3797 4.45767 46.5921 3.64733 47.0167 2.928C47.4414 2.20867 48.0134 1.64967 48.7327 1.251C49.4607 0.843666 50.2581 0.64 51.1247 0.64C51.9914 0.64 52.7844 0.843666 53.5037 1.251C54.2231 1.64967 54.7907 2.20867 55.2067 2.928C55.6314 3.64733 55.8437 4.45767 55.8437 5.359C55.8437 6.26033 55.6314 7.07067 55.2067 7.79C54.7907 8.50933 54.2187 9.07267 53.4907 9.48C52.7714 9.88733 51.9827 10.091 51.1247 10.091ZM51.1247 7.4C51.6967 7.4 52.1387 7.218 52.4507 6.854C52.7627 6.48133 52.9187 5.983 52.9187 5.359C52.9187 4.72633 52.7627 4.228 52.4507 3.864C52.1387 3.49133 51.6967 3.305 51.1247 3.305C50.5441 3.305 50.0977 3.49133 49.7857 3.864C49.4737 4.228 49.3177 4.72633 49.3177 5.359C49.3177 5.983 49.4737 6.48133 49.7857 6.854C50.0977 7.218 50.5441 7.4 51.1247 7.4ZM64.4119 3.955C64.4119 4.53567 64.2775 5.06433 64.0089 5.541C63.7402 6.009 63.3415 6.38167 62.8129 6.659C62.2929 6.93633 61.6602 7.075 60.9149 7.075H59.7709V10H56.8849V0.796H60.9149C62.0415 0.796 62.9039 1.082 63.5019 1.654C64.1085 2.226 64.4119 2.993 64.4119 3.955ZM60.5899 4.8C61.1879 4.8 61.4869 4.51833 61.4869 3.955C61.4869 3.39167 61.1879 3.11 60.5899 3.11H59.7709V4.8H60.5899ZM68.2132 3.097V4.228H71.0732V6.399H68.2132V7.699H71.4632V10H65.3272V0.796H71.4632V3.097H68.2132ZM77.1789 10L75.4499 6.698H75.4369V10H72.5509V0.796H76.8409C77.5862 0.796 78.2232 0.930333 78.7519 1.199C79.2805 1.459 79.6749 1.81867 79.9349 2.278C80.2035 2.72867 80.3379 3.24 80.3379 3.812C80.3379 4.42733 80.1645 4.97333 79.8179 5.45C79.4799 5.92667 78.9902 6.269 78.3489 6.477L80.3509 10H77.1789ZM75.4369 4.774H76.5809C76.8582 4.774 77.0662 4.71333 77.2049 4.592C77.3435 4.462 77.4129 4.26267 77.4129 3.994C77.4129 3.75133 77.3392 3.56067 77.1919 3.422C77.0532 3.28333 76.8495 3.214 76.5809 3.214H75.4369V4.774ZM0.761289 19.796C0.761289 18.4907 0.981289 17.3613 1.42129 16.408C1.87596 15.44 2.49196 14.7067 3.26929 14.208C4.04662 13.6947 4.91929 13.438 5.88729 13.438C6.69396 13.438 7.39062 13.6067 7.97729 13.944C8.56396 14.2667 9.01129 14.714 9.31929 15.286V13.592H14.1813V26H9.31929V24.306C9.01129 24.878 8.56396 25.3327 7.97729 25.67C7.39062 25.9927 6.69396 26.154 5.88729 26.154C4.91929 26.154 4.04662 25.9047 3.26929 25.406C2.49196 24.8927 1.87596 24.1593 1.42129 23.206C0.981289 22.238 0.761289 21.1013 0.761289 19.796ZM9.31929 19.796C9.31929 19.136 9.15062 18.6227 8.81329 18.256C8.47596 17.8893 8.04329 17.706 7.51529 17.706C6.98729 17.706 6.55462 17.8893 6.21729 18.256C5.87996 18.6227 5.71129 19.136 5.71129 19.796C5.71129 20.456 5.87996 20.9693 6.21729 21.336C6.55462 21.7027 6.98729 21.886 7.51529 21.886C8.04329 21.886 8.47596 21.7027 8.81329 21.336C9.15062 20.9693 9.31929 20.456 9.31929 19.796ZM15.7144 19.796C15.7144 18.4907 15.9344 17.3613 16.3744 16.408C16.8291 15.44 17.4451 14.7067 18.2224 14.208C18.9997 13.6947 19.8724 13.438 20.8404 13.438C21.6471 13.438 22.3437 13.6067 22.9304 13.944C23.5171 14.2667 23.9644 14.714 24.2724 15.286V13.592H29.1344V26H24.2724V24.306C23.9644 24.878 23.5171 25.3327 22.9304 25.67C22.3437 25.9927 21.6471 26.154 20.8404 26.154C19.8724 26.154 18.9997 25.9047 18.2224 25.406C17.4451 24.8927 16.8291 24.1593 16.3744 23.206C15.9344 22.238 15.7144 21.1013 15.7144 19.796ZM24.2724 19.796C24.2724 19.136 24.1037 18.6227 23.7664 18.256C23.4291 17.8893 22.9964 17.706 22.4684 17.706C21.9404 17.706 21.5077 17.8893 21.1704 18.256C20.8331 18.6227 20.6644 19.136 20.6644 19.796C20.6644 20.456 20.8331 20.9693 21.1704 21.336C21.5077 21.7027 21.9404 21.886 22.4684 21.886C22.9964 21.886 23.4291 21.7027 23.7664 21.336C24.1037 20.9693 24.2724 20.456 24.2724 19.796ZM36.2115 15.88C36.7102 15.1613 37.3189 14.5893 38.0375 14.164C38.7562 13.724 39.5042 13.504 40.2815 13.504V18.718H38.8955C37.9715 18.718 37.2895 18.8793 36.8495 19.202C36.4242 19.5247 36.2115 20.0967 36.2115 20.918V26H31.3275V13.592H36.2115V15.88ZM55.6111 13.592L47.6691 31.94H42.3231L45.4471 25.384L40.2771 13.592H45.7111L48.0431 19.884L50.2211 13.592H55.6111ZM55.8257 19.796C55.8257 18.4907 56.0457 17.3613 56.4857 16.408C56.9404 15.44 57.5564 14.7067 58.3337 14.208C59.1111 13.6947 59.9837 13.438 60.9517 13.438C61.7584 13.438 62.4551 13.6067 63.0417 13.944C63.6284 14.2667 64.0757 14.714 64.3837 15.286V13.592H69.2457V26H64.3837V24.306C64.0757 24.878 63.6284 25.3327 63.0417 25.67C62.4551 25.9927 61.7584 26.154 60.9517 26.154C59.9837 26.154 59.1111 25.9047 58.3337 25.406C57.5564 24.8927 56.9404 24.1593 56.4857 23.206C56.0457 22.238 55.8257 21.1013 55.8257 19.796ZM64.3837 19.796C64.3837 19.136 64.2151 18.6227 63.8777 18.256C63.5404 17.8893 63.1077 17.706 62.5797 17.706C62.0517 17.706 61.6191 17.8893 61.2817 18.256C60.9444 18.6227 60.7757 19.136 60.7757 19.796C60.7757 20.456 60.9444 20.9693 61.2817 21.336C61.6191 21.7027 62.0517 21.886 62.5797 21.886C63.1077 21.886 63.5404 21.7027 63.8777 21.336C64.2151 20.9693 64.3837 20.456 64.3837 19.796ZM80.1289 13.504C81.5515 13.504 82.6589 13.9807 83.4509 14.934C84.2575 15.8873 84.6609 17.178 84.6609 18.806V26H79.7989V19.422C79.7989 18.8353 79.6375 18.3733 79.3149 18.036C79.0069 17.684 78.5889 17.508 78.0609 17.508C77.5182 17.508 77.0929 17.684 76.7849 18.036C76.4769 18.3733 76.3229 18.8353 76.3229 19.422V26H71.4389V13.592H76.3229V15.484C76.7042 14.8973 77.2102 14.4207 77.8409 14.054C78.4862 13.6873 79.2489 13.504 80.1289 13.504Z" fill="white"/>
</svg>
